HIERARCHY
ROOT Hips
{
	OFFSET -0.148888 88.448799 3.733362
	CHANNELS 6 Xposition Yposition Zposition Zrotation Yrotation Xrotation 
	JOINT Spine
	{
		OFFSET 0.000000 8.814246 -2.080107
		CHANNELS 3 Zrotation Yrotation Xrotation
		JOINT Spine1
		{
			OFFSET 0.000000 8.844141 0.000000
			CHANNELS 3 Zrotation Yrotation Xrotation
			JOINT Spine2
			{
				OFFSET -0.000000 11.682268 -0.000000
				CHANNELS 3 Zrotation Yrotation Xrotation
				JOINT Spine3
				{
					OFFSET -0.000000 11.746700 -0.000000
					CHANNELS 3 Zrotation Yrotation Xrotation
					JOINT Neck
					{
						OFFSET 0.000000 17.658264 -0.000000
						CHANNELS 3 Zrotation Yrotation Xrotation
						JOINT Neck1
						{
							OFFSET 0.000000 5.101515 0.000000
							CHANNELS 3 Zrotation Yrotation Xrotation
							JOINT Head
							{
								OFFSET -0.000000 5.101515 -0.000000
								CHANNELS 3 Zrotation Yrotation Xrotation
								JOINT HeadEnd
								{
									OFFSET 0.000000 11.655085 -0.000000
									CHANNELS 3 Zrotation Yrotation Xrotation
									End Site
									{
										OFFSET 0.000000 0.000000 0.000000
									}
								}
							}
						}
					}
					JOINT RightShoulder
					{
						OFFSET -2.625389 11.175210 -0.000000
						CHANNELS 3 Zrotation Yrotation Xrotation
						JOINT RightArm
						{
							OFFSET -0.000000 10.434715 0.000000
							CHANNELS 3 Zrotation Yrotation Xrotation
							JOINT RightForeArm
							{
								OFFSET 0.000000 29.628420 0.000000
								CHANNELS 3 Zrotation Yrotation Xrotation
								JOINT RightHand
								{
									OFFSET 0.000000 22.857611 0.000000
									CHANNELS 3 Zrotation Yrotation Xrotation
									JOINT RightHandThumb1
									{
										OFFSET -2.867323 3.959563 2.944291
										CHANNELS 3 Zrotation Yrotation Xrotation
										JOINT RightHandThumb2
										{
											OFFSET -0.000000 3.350399 0.000000
											CHANNELS 3 Zrotation Yrotation Xrotation
											JOINT RightHandThumb3
											{
												OFFSET -0.000000 3.756509 0.000000
												CHANNELS 3 Zrotation Yrotation Xrotation
												JOINT RightHandThumb4
												{
													OFFSET 0.000000 3.147345 0.000000
													CHANNELS 3 Zrotation Yrotation Xrotation
													End Site
													{
														OFFSET 0.000000 0.000000 0.000000
													}
												}
											}
										}
									}
									JOINT RightHandIndex1
									{
										OFFSET -0.086752 10.030893 2.345280
										CHANNELS 3 Zrotation Yrotation Xrotation
										JOINT RightHandIndex2
										{
											OFFSET 0.000000 4.061090 -0.000000
											CHANNELS 3 Zrotation Yrotation Xrotation
											JOINT RightHandIndex3
											{
												OFFSET -0.000000 3.248873 0.000000
												CHANNELS 3 Zrotation Yrotation Xrotation
												JOINT RightHandIndex4
												{
													OFFSET 0.000000 2.639709 -0.000000
													CHANNELS 3 Zrotation Yrotation Xrotation
													End Site
													{
														OFFSET 0.000000 0.000000 0.000000
													}
												}
											}
										}
									}
									JOINT RightHandMiddle1
									{
										OFFSET 0.104102 9.502952 0.006768
										CHANNELS 3 Zrotation Yrotation Xrotation
										JOINT RightHandMiddle2
										{
											OFFSET 0.000000 4.568727 0.000000
											CHANNELS 3 Zrotation Yrotation Xrotation
											JOINT RightHandMiddle3
											{
												OFFSET 0.000000 3.654981 -0.000000
												CHANNELS 3 Zrotation Yrotation Xrotation
												JOINT RightHandMiddle4
												{
													OFFSET -0.000000 2.741236 0.000000
													CHANNELS 3 Zrotation Yrotation Xrotation
													End Site
													{
														OFFSET 0.000000 0.000000 0.000000
													}
												}
											}
										}
									}
									JOINT RightHandRing1
									{
										OFFSET 0.086752 8.921708 -2.267442
										CHANNELS 3 Zrotation Yrotation Xrotation
										JOINT RightHandRing2
										{
											OFFSET -0.000000 4.061090 0.000000
											CHANNELS 3 Zrotation Yrotation Xrotation
											JOINT RightHandRing3
											{
												OFFSET -0.000000 3.654981 0.000000
												CHANNELS 3 Zrotation Yrotation Xrotation
												JOINT RightHandRing4
												{
													OFFSET -0.000000 2.741236 0.000000
													CHANNELS 3 Zrotation Yrotation Xrotation
													End Site
													{
														OFFSET 0.000000 0.000000 0.000000
													}
												}
											}
										}
									}
									JOINT RightHandPinky1
									{
										OFFSET -0.173504 7.976997 -4.467199
										CHANNELS 3 Zrotation Yrotation Xrotation
										JOINT RightHandPinky2
										{
											OFFSET -0.000000 3.350399 0.000000
											CHANNELS 3 Zrotation Yrotation Xrotation
											JOINT RightHandPinky3
											{
												OFFSET -0.000000 2.842763 0.000000
												CHANNELS 3 Zrotation Yrotation Xrotation
												JOINT RightHandPinky4
												{
													OFFSET 0.000000 2.639709 -0.000000
													CHANNELS 3 Zrotation Yrotation Xrotation
													End Site
													{
														OFFSET 0.000000 0.000000 0.000000
													}
												}
											}
										}
									}
									JOINT RightForeArmEnd
									{
										OFFSET 0.000000 0.000000 0.000000
										CHANNELS 3 Zrotation Yrotation Xrotation
										End Site
										{
											OFFSET 0.000000 0.000000 0.000000
										}
									}
								}
								JOINT RightArmEnd
								{
									OFFSET 0.000000 0.000000 0.000000
									CHANNELS 3 Zrotation Yrotation Xrotation
									End Site
									{
										OFFSET 0.000000 0.000000 0.000000
									}
								}
							}
						}
					}
					JOINT LeftShoulder
					{
						OFFSET 2.625389 11.175210 0.000000
						CHANNELS 3 Zrotation Yrotation Xrotation
						JOINT LeftArm
						{
							OFFSET -0.000000 10.813635 -0.000000
							CHANNELS 3 Zrotation Yrotation Xrotation
							JOINT LeftForeArm
							{
								OFFSET 0.000000 28.724781 0.000000
								CHANNELS 3 Zrotation Yrotation Xrotation
								JOINT LeftHand
								{
									OFFSET 0.644384 25.716167 -0.328871
									CHANNELS 3 Zrotation Yrotation Xrotation
									JOINT LeftHandThumb1
									{
										OFFSET 2.867323 3.959563 2.944291
										CHANNELS 3 Zrotation Yrotation Xrotation
										JOINT LeftHandThumb2
										{
											OFFSET 0.000000 3.350399 -0.000000
											CHANNELS 3 Zrotation Yrotation Xrotation
											JOINT LeftHandThumb3
											{
												OFFSET 0.000000 3.756509 0.000000
												CHANNELS 3 Zrotation Yrotation Xrotation
												JOINT LeftHandThumb4
												{
													OFFSET -0.000000 3.100000 0.000000
													CHANNELS 3 Zrotation Yrotation Xrotation
													End Site
													{
														OFFSET 0.000000 0.000000 0.000000
													}
												}
											}
										}
									}
									JOINT LeftHandIndex1
									{
										OFFSET 0.086752 10.030893 2.345280
										CHANNELS 3 Zrotation Yrotation Xrotation
										JOINT LeftHandIndex2
										{
											OFFSET -0.000000 4.061090 0.000000
											CHANNELS 3 Zrotation Yrotation Xrotation
											JOINT LeftHandIndex3
											{
												OFFSET 0.000000 3.248873 0.000000
												CHANNELS 3 Zrotation Yrotation Xrotation
												JOINT LeftHandIndex4
												{
													OFFSET -0.000000 2.639709 -0.000000
													CHANNELS 3 Zrotation Yrotation Xrotation
													End Site
													{
														OFFSET 0.000000 0.000000 0.000000
													}
												}
											}
										}
									}
									JOINT LeftHandMiddle1
									{
										OFFSET -0.104102 9.502952 0.006768
										CHANNELS 3 Zrotation Yrotation Xrotation
										JOINT LeftHandMiddle2
										{
											OFFSET -0.000000 4.568727 -0.000000
											CHANNELS 3 Zrotation Yrotation Xrotation
											JOINT LeftHandMiddle3
											{
												OFFSET 0.000000 3.654981 0.000000
												CHANNELS 3 Zrotation Yrotation Xrotation
												JOINT LeftHandMiddle4
												{
													OFFSET 0.000000 2.741236 0.000000
													CHANNELS 3 Zrotation Yrotation Xrotation
													End Site
													{
														OFFSET 0.000000 0.000000 0.000000
													}
												}
											}
										}
									}
									JOINT LeftHandRing1
									{
										OFFSET -0.086752 8.921708 -2.267442
										CHANNELS 3 Zrotation Yrotation Xrotation
										JOINT LeftHandRing2
										{
											OFFSET 0.000000 4.061090 0.000000
											CHANNELS 3 Zrotation Yrotation Xrotation
											JOINT LeftHandRing3
											{
												OFFSET 0.000000 3.654981 0.000000
												CHANNELS 3 Zrotation Yrotation Xrotation
												JOINT LeftHandRing4
												{
													OFFSET -0.000000 2.741236 0.000000
													CHANNELS 3 Zrotation Yrotation Xrotation
													End Site
													{
														OFFSET 0.000000 0.000000 0.000000
													}
												}
											}
										}
									}
									JOINT LeftHandPinky1
									{
										OFFSET 0.173504 7.976997 -4.467199
										CHANNELS 3 Zrotation Yrotation Xrotation
										JOINT LeftHandPinky2
										{
											OFFSET -0.000000 3.350399 -0.000000
											CHANNELS 3 Zrotation Yrotation Xrotation
											JOINT LeftHandPinky3
											{
												OFFSET -0.000000 2.842763 0.000000
												CHANNELS 3 Zrotation Yrotation Xrotation
												JOINT LeftHandPinky4
												{
													OFFSET 0.000000 2.639709 0.000000
													CHANNELS 3 Zrotation Yrotation Xrotation
													End Site
													{
														OFFSET 0.000000 0.000000 0.000000
													}
												}
											}
										}
									}
									JOINT LeftForeArmEnd
									{
										OFFSET 0.000000 0.000000 0.000000
										CHANNELS 3 Zrotation Yrotation Xrotation
										End Site
										{
											OFFSET 0.000000 0.000000 0.000000
										}
									}
								}
								JOINT LeftArmEnd
								{
									OFFSET 0.000000 0.000000 0.000000
									CHANNELS 3 Zrotation Yrotation Xrotation
									End Site
									{
										OFFSET 0.000000 0.000000 0.000000
									}
								}
							}
						}
					}
				}
			}
		}
	}
	JOINT RightUpLeg
	{
		OFFSET -11.289943 -0.000000 -0.000000
		CHANNELS 3 Zrotation Yrotation Xrotation
		JOINT RightLeg
		{
			OFFSET 0.000000 -38.200325 0.000000
			CHANNELS 3 Zrotation Yrotation Xrotation
			JOINT RightFoot
			{
				OFFSET 0.000000 -39.900856 -0.000000
				CHANNELS 3 Zrotation Yrotation Xrotation
				JOINT RightToeBase
				{
					OFFSET 0.000000 0.000000 15.261641
					CHANNELS 3 Zrotation Yrotation Xrotation
					JOINT RightToeBaseEnd
					{
						OFFSET -0.000000 -0.000000 7.370709
						CHANNELS 3 Zrotation Yrotation Xrotation
						End Site
						{
							OFFSET 0.000000 0.000000 0.000000
						}
					}
				}
				JOINT RightLegEnd
				{
					OFFSET 0.000000 0.000000 0.000000
					CHANNELS 3 Zrotation Yrotation Xrotation
					End Site
					{
						OFFSET 0.000000 0.000000 0.000000
					}
				}
			}
			JOINT RightUpLegEnd
			{
				OFFSET 0.000000 0.000000 0.000000
				CHANNELS 3 Zrotation Yrotation Xrotation
				End Site
				{
					OFFSET 0.000000 0.000000 0.000000
				}
			}
		}
	}
	JOINT LeftUpLeg
	{
		OFFSET 11.315661 -0.000000 0.000000
		CHANNELS 3 Zrotation Yrotation Xrotation
		JOINT LeftLeg
		{
			OFFSET -0.000000 -38.200325 -0.000000
			CHANNELS 3 Zrotation Yrotation Xrotation
			JOINT LeftFoot
			{
				OFFSET 0.000000 -39.900856 -0.000000
				CHANNELS 3 Zrotation Yrotation Xrotation
				JOINT LeftToeBase
				{
					OFFSET 0.000000 0.000000 15.261641
					CHANNELS 3 Zrotation Yrotation Xrotation
					JOINT LeftToeBaseEnd
					{
						OFFSET 0.000000 -0.000000 7.539996
						CHANNELS 3 Zrotation Yrotation Xrotation
						End Site
						{
							OFFSET 0.000000 0.000000 0.000000
						}
					}
				}
				JOINT LeftLegEnd
				{
					OFFSET 0.000000 0.000000 0.000000
					CHANNELS 3 Zrotation Yrotation Xrotation
					End Site
					{
						OFFSET 0.000000 0.000000 0.000000
					}
				}
			}
			JOINT LeftUpLegEnd
			{
				OFFSET 0.000000 0.000000 0.000000
				CHANNELS 3 Zrotation Yrotation Xrotation
				End Site
				{
					OFFSET 0.000000 0.000000 0.000000
				}
			}
		}
	}
}
MOTION
Frames: 4
Frame Time: 0.016667
-0.148888 88.448799 3.733362 -1.071294 -0.165774 -8.795275 1.977979 -0.454280 7.201230 -1.571631 0.301330 1.174068 -0.240323 -1.599208 1.542572 -0.148160 -0.486667 0.007339 2.983474 2.070139 7.902873 0.724172 3.669763 -1.586659 -0.964287 -0.706352 -15.315372 0.000000 0.000000 0.000000 95.648170 -1.072138 10.953419 54.864632 -56.995480 11.180590 -0.098399 6.046414 28.930777 11.922408 10.375718 -3.733858 10.937046 -1.865515 39.738762 0.000000 0.000000 -26.639997 0.000000 0.000000 -18.499998 0.000000 0.000000 0.000000 14.917025 -0.000000 -4.046403 10.441919 0.000000 0.000000 10.441919 0.000000 0.000000 0.000000 0.000000 0.000000 13.016307 0.000000 -6.907734 9.111417 0.000000 0.000000 9.111417 0.000000 0.000000 0.000000 0.000000 0.000000 12.065241 0.000000 -8.902472 8.445668 0.000000 0.000000 8.445668 0.000000 0.000000 0.000000 0.000000 0.000000 10.481709 -0.000000 -12.391636 7.337195 0.000000 0.000000 7.337195 0.000000 0.000000 0.000000 0.000000 0.000000 0.000000 0.000000 0.000000 0.000000 0.000000 0.000000 -93.027763 0.366341 6.512349 -63.928600 41.960018 -1.341277 -0.560537 -1.312608 43.460899 -8.089611 -4.192083 -9.728065 -12.135554 1.950835 39.216904 0.000000 0.000000 -29.519997 0.000000 0.000000 -20.499998 0.000000 0.000000 0.000000 -21.031582 -0.000000 -5.234027 -14.722108 0.000000 0.000000 -14.722108 0.000000 0.000000 0.000000 0.000000 0.000000 -18.543806 0.000000 -7.204970 -12.980664 0.000000 0.000000 -12.980664 0.000000 0.000000 0.000000 0.000000 0.000000 -16.284643 0.000000 -9.077846 -11.399253 0.000000 0.000000 -11.399253 0.000000 0.000000 0.000000 0.000000 0.000000 -12.854185 -0.000000 -11.003169 -8.997928 0.000000 0.000000 -8.997928 0.000000 0.000000 0.000000 0.000000 0.000000 0.000000 0.000000 0.000000 0.000000 0.000000 0.000000 -6.742904 -12.334049 11.218077 -0.100748 -1.572749 3.630219 4.062670 -8.851838 22.145350 -1.149408 2.248072 -19.515566 0.000000 0.000000 0.000000 0.000000 0.000000 0.000000 0.000000 0.000000 0.000000 7.149309 -3.984354 4.916173 0.269636 1.266636 11.990840 -4.307302 12.293428 17.657980 1.482724 -1.272024 -21.386477 0.000000 0.000000 0.000000 0.000000 0.000000 0.000000 0.000000 0.000000 0.000000 
0.008856 88.384216 3.446188 -1.258346 -0.508971 -9.176336 2.128214 -0.314111 6.282043 -0.370168 0.104804 3.202222 -0.436926 -0.722573 0.553341 -1.266109 -0.142806 2.342024 3.316907 0.345450 4.962253 1.091619 2.057469 -2.816413 -0.620826 -1.516977 -17.378290 0.000000 0.000000 0.000000 93.028526 -0.585336 10.943927 59.456219 -51.480610 9.821857 -0.505203 7.686997 29.336197 11.808385 7.471642 -1.952824 11.018716 -1.877190 39.748592 -0.000006 0.000031 -26.769930 0.000012 0.000044 -18.542187 0.000009 0.000001 -0.000031 15.048825 -0.021149 -4.458812 10.254498 -0.034003 -0.001587 10.320592 -0.013474 -0.017976 -0.000032 0.000020 -0.000027 13.107381 -0.008759 -6.314630 9.113853 -0.017846 0.001399 9.176004 -0.001266 0.002676 0.000027 0.000030 0.000012 12.099761 -0.029077 -7.097081 8.366238 0.040031 -0.065173 8.318817 0.019801 -0.044206 0.000002 0.000082 0.000001 10.906113 0.010855 -9.372176 7.619687 0.135554 -0.230561 7.429633 0.077605 -0.204079 -0.000344 -0.000004 0.000002 0.000000 0.000000 0.000000 0.000000 0.000000 0.000000 -91.485580 0.337330 7.563452 -62.426285 40.442238 1.768015 0.370676 -2.587593 43.365021 -6.629322 -3.928254 -10.736273 -12.050031 1.929839 39.264565 0.000003 0.000031 -29.142570 -0.000080 -0.000030 -20.391348 -0.001015 -0.000005 0.001456 -20.412870 0.033933 -4.863681 -13.576361 0.053287 0.394429 -13.863528 0.074219 0.351321 0.000014 0.000401 0.000012 -18.374058 0.016460 -6.215731 -12.487942 0.010595 0.155429 -12.297650 0.021157 0.129167 0.001106 -0.000045 -0.000069 -15.998079 0.032102 -7.661121 -10.917143 -0.000467 -0.194455 -10.908576 -0.017486 -0.144462 -0.000533 0.000005 0.000010 -12.281755 0.049607 -8.962209 -8.868423 -0.011984 -0.352737 -9.051032 -0.060887 -0.323365 -0.000285 -0.000010 -0.000038 0.000000 0.000000 0.000000 0.000000 0.000000 0.000000 -7.644554 -12.298199 11.938172 -0.221643 -1.158688 5.724173 3.855280 -9.752242 20.561314 -1.112039 1.566655 -17.841427 0.000000 0.000000 0.000000 0.000000 0.000000 0.000000 0.000000 0.000000 0.000000 8.081687 -0.525189 6.610448 0.218752 0.826723 13.536063 -4.445478 9.739357 18.078009 0.811876 -0.781313 -21.097191 0.000000 0.000000 0.000000 0.000000 0.000000 0.000000 0.000000 0.000000 0.000000 
0.069805 88.362976 3.383468 -1.001063 -0.465079 -9.185893 1.932784 -0.279744 6.395642 -0.529240 0.139413 3.262442 -0.325276 -0.827023 0.616352 -1.348962 -0.148687 2.373485 3.198961 0.301094 4.564868 1.128047 2.003541 -2.890933 -0.590154 -1.494975 -17.308222 0.000000 0.000000 0.000000 92.771706 -0.521663 11.068293 60.084747 -50.825523 9.482638 -0.506840 8.091650 29.570694 11.345510 6.972652 -2.074214 11.020062 -1.879994 39.745468 -0.000010 0.000042 -26.808535 0.000018 0.000037 -18.568296 0.000015 0.000005 -0.000043 15.270711 -0.016369 -4.347704 10.409299 -0.020684 -0.040201 10.483606 -0.000563 -0.048479 -0.000013 0.000034 -0.000021 13.302698 -0.006762 -6.194171 9.276066 -0.013093 -0.014069 9.323583 0.003452 -0.006315 0.000025 0.000011 0.000001 12.243159 -0.030720 -6.990769 8.507297 0.031533 -0.050545 8.458209 0.013314 -0.030360 -0.000011 0.000247 -0.000009 11.038635 0.005467 -9.255754 7.750984 0.112492 -0.173487 7.555820 0.056887 -0.156001 -0.000320 0.000005 -0.000005 0.000000 0.000000 0.000000 0.000000 0.000000 0.000000 -91.180489 0.301948 7.547942 -63.083370 39.390640 1.290681 0.409875 -2.705514 43.472637 -6.089473 -4.121674 -10.918054 -12.041431 1.932762 39.260380 0.000010 0.000036 -29.105839 -0.000100 -0.000018 -20.370373 -0.000877 0.000002 0.001405 -20.468836 0.038051 -4.820655 -13.585428 0.052393 0.373590 -13.893829 0.073626 0.330962 0.000025 0.000213 0.000009 -18.511890 0.017886 -6.223436 -12.508524 0.010508 0.146484 -12.319153 0.021717 0.121910 0.001288 -0.000048 -0.000114 -16.234341 0.033301 -7.682029 -11.009623 -0.001466 -0.183572 -11.003566 -0.018258 -0.137941 -0.000598 0.000012 0.000009 -12.624698 0.050216 -8.966013 -8.998600 -0.013698 -0.317607 -9.155722 -0.063086 -0.298030 -0.000264 0.000003 -0.000059 0.000000 0.000000 0.000000 0.000000 0.000000 0.000000 -8.025971 -12.357889 11.681979 -0.222559 -1.162933 6.000603 4.112671 -9.557101 20.443758 -1.156280 1.575630 -17.834732 0.000000 0.000000 0.000000 0.000000 0.000000 0.000000 0.000000 0.000000 0.000000 7.780022 -0.370114 6.755958 0.213541 0.795843 13.302351 -4.347537 9.696503 18.098606 0.793711 -0.780646 -21.051970 0.000000 0.000000 0.000000 0.000000 0.000000 0.000000 0.000000 0.000000 0.000000 
0.116707 88.344604 3.340655 -0.775895 -0.452501 -9.176641 1.763702 -0.243587 6.485093 -0.636837 0.160595 3.268741 -0.298877 -0.840325 0.705861 -1.446336 -0.126053 2.418418 2.924781 0.366856 4.162846 1.155868 1.971264 -3.022338 -0.569592 -1.494123 -17.300549 0.000000 0.000000 0.000000 92.544319 -0.452134 11.116660 60.511627 -50.125187 9.211071 -0.509898 8.542894 30.068390 10.964044 6.512132 -1.849064 11.046350 -1.883154 39.732346 -0.000008 0.000040 -26.912947 0.000016 0.000038 -18.635422 0.000016 0.000005 -0.000042 15.611040 -0.017206 -4.286095 10.645275 -0.006645 -0.081994 10.714547 0.013535 -0.084246 -0.000013 0.000033 -0.000022 13.619660 -0.008297 -6.109669 9.515869 -0.007765 -0.030208 9.552094 0.008540 -0.017537 0.000024 0.000012 0.000002 12.499413 -0.029563 -6.913431 8.706636 0.022099 -0.035696 8.656559 0.006332 -0.016315 -0.000010 0.000420 -0.000009 11.205163 0.005096 -9.156418 7.926604 0.086181 -0.121100 7.729577 0.034213 -0.111055 -0.000276 0.000004 -0.000012 0.000000 0.000000 0.000000 0.000000 0.000000 0.000000 -90.925346 0.294467 7.460345 -63.394867 38.693829 0.913523 0.431996 -3.016837 43.664791 -5.832072 -4.144108 -10.952797 -12.027677 1.934050 39.260002 0.000009 0.000035 -29.082134 -0.000112 -0.000018 -20.349073 -0.000833 0.000003 0.001366 -20.551193 0.034829 -4.671845 -13.657845 0.052780 0.355120 -13.973109 0.073950 0.314746 0.000022 0.000069 0.000011 -18.658226 0.016120 -6.124617 -12.590033 0.010499 0.138755 -12.410380 0.022334 0.115678 0.001415 -0.000048 -0.000132 -16.485216 0.036279 -7.607770 -11.168408 -0.003141 -0.176573 -11.166310 -0.019489 -0.133670 -0.000618 0.000013 0.000009 -13.016579 0.051230 -8.885936 -9.202819 -0.017604 -0.299923 -9.354615 -0.067027 -0.282296 -0.000282 0.000003 -0.000059 0.000000 0.000000 0.000000 0.000000 0.000000 0.000000 -8.367718 -12.364621 11.503360 -0.223157 -1.164043 6.175174 4.315146 -9.337920 20.343002 -1.191825 1.577151 -17.853413 0.000000 0.000000 0.000000 0.000000 0.000000 0.000000 0.000000 0.000000 0.000000 7.517382 -0.201665 6.851159 0.208427 0.774280 13.152773 -4.264272 9.709290 18.112820 0.779653 -0.775871 -21.035271 0.000000 0.000000 0.000000 0.000000 0.000000 0.000000 0.000000 0.000000 0.000000 
